<svg width="20" height="21" viewBox="0 0 20 21" fill="none" xmlns="http://www.w3.org/2000/svg">
<path d="M10 18.9502C9.46957 18.9502 8.96086 18.7395 8.58579 18.3644C8.21071 17.9893 8 17.4806 8 16.9502C8 16.4198 8.21071 15.9111 8.58579 15.536C8.96086 15.1609 9.46957 14.9502 10 14.9502C10.5304 14.9502 11.0391 15.1609 11.4142 15.536C11.7893 15.9111 12 16.4198 12 16.9502C12 17.4806 11.7893 17.9893 11.4142 18.3644C11.0391 18.7395 10.5304 18.9502 10 18.9502ZM10 12.9502C9.46957 12.9502 8.96086 12.7395 8.58579 12.3644C8.21071 11.9893 8 11.4806 8 10.9502C8 10.4198 8.21071 9.91106 8.58579 9.53598C8.96086 9.16091 9.46957 8.9502 10 8.9502C10.5304 8.9502 11.0391 9.16091 11.4142 9.53598C11.7893 9.91106 12 10.4198 12 10.9502C12 11.4806 11.7893 11.9893 11.4142 12.3644C11.0391 12.7395 10.5304 12.9502 10 12.9502ZM8 4.9502C8 5.48063 8.21071 5.98934 8.58579 6.36441C8.96086 6.73948 9.46957 6.9502 10 6.9502C10.5304 6.9502 11.0391 6.73948 11.4142 6.36441C11.7893 5.98934 12 5.48063 12 4.9502C12 4.41976 11.7893 3.91105 11.4142 3.53598C11.0391 3.16091 10.5304 2.9502 10 2.9502C9.46957 2.9502 8.96086 3.16091 8.58579 3.53598C8.21071 3.91105 8 4.41976 8 4.9502Z" fill="#EFEFF1"/>
</svg>
