<svg width="24" height="24" viewBox="0 0 24 24" fill="none" xmlns="http://www.w3.org/2000/svg">
<g clip-path="url(#clip0_201_9536)">
<path fill-rule="evenodd" clip-rule="evenodd" d="M15.8308 17.5271C14.13 18.7989 12.0106 19.3793 9.89918 19.1514C7.78774 18.9236 5.84096 17.9044 4.45065 16.2991C3.06034 14.6937 2.32971 12.6213 2.40579 10.499C2.48187 8.37665 3.35901 6.3619 4.8607 4.86021C6.36238 3.35853 8.37714 2.48138 10.4995 2.4053C12.6218 2.32922 14.6942 3.05986 16.2996 4.45016C17.9049 5.84047 18.9241 7.78725 19.1519 9.89869C19.3798 12.0101 18.7994 14.1295 17.5276 15.8303L21.2488 19.5503L19.552 21.2483L15.832 17.5283L15.8308 17.5271ZM16.8004 10.7999C16.8004 12.3912 16.1682 13.9173 15.043 15.0425C13.9178 16.1678 12.3917 16.7999 10.8004 16.7999C9.20909 16.7999 7.68297 16.1678 6.55775 15.0425C5.43253 13.9173 4.80039 12.3912 4.80039 10.7999C4.80039 9.2086 5.43253 7.68248 6.55775 6.55726C7.68297 5.43204 9.20909 4.7999 10.8004 4.7999C12.3917 4.7999 13.9178 5.43204 15.043 6.55726C16.1682 7.68248 16.8004 9.2086 16.8004 10.7999Z" fill="currentColor"/>
</g>
<defs>
<clipPath id="clip0_201_9536">
<rect width="24" height="24" fill="currentColor"/>
</clipPath>
</defs>
</svg>
