<svg width="57" height="63" viewBox="0 0 57 63" fill="none" xmlns="http://www.w3.org/2000/svg">
<path fill-rule="evenodd" clip-rule="evenodd" d="M34.05 2.66424C33.237 2.57224 32.218 2.49824 31.451 2.85024C31.3255 2.90794 31.1897 2.9402 31.0516 2.94517C30.9135 2.95014 30.7757 2.92771 30.6463 2.87918C30.5169 2.83066 30.3984 2.75699 30.2976 2.66243C30.1968 2.56787 30.1157 2.45429 30.059 2.32824C29.9434 2.07308 29.9333 1.78256 30.0309 1.51997C30.1285 1.25737 30.3258 1.04397 30.58 0.926241C31.705 0.409241 33.082 0.426241 34.286 0.562241C35.365 0.683241 36.401 0.715241 37.571 0.802241C41.815 1.12024 45.898 2.70724 48.539 6.21424C50.063 8.23724 51.763 10.8062 52.169 13.3232C52.559 15.7382 52.611 17.9582 52.635 20.3792C52.641 20.9232 52.648 21.5182 52.602 22.1352C54.353 23.5052 53.575 27.0962 53.356 29.0342C53.258 29.9002 53.116 30.7612 52.985 31.6232C53.975 33.0772 54.57 34.7262 55.143 36.3792C55.717 38.0362 56.447 40.1422 56.451 42.1112C56.456 44.5342 56.445 47.1552 55.511 49.4332C55.161 50.2872 54.615 51.2502 53.803 51.8072C53.471 52.0342 52.856 52.3282 52.413 52.5322C52.105 52.6742 51.911 52.7242 51.753 53.0202C51.547 53.4022 51.238 53.9302 50.815 54.5372C48.789 57.4472 45.767 59.7512 42.482 61.0402C41.551 61.4052 40.452 61.6042 38.892 61.7822C38.618 61.8042 38.3462 61.7186 38.1341 61.5436C37.9221 61.3686 37.7865 61.1179 37.7561 60.8447C37.7257 60.5714 37.8028 60.2971 37.9712 60.0797C38.1395 59.8624 38.3859 59.7191 38.658 59.6802C40.189 59.5062 41.058 59.3302 41.722 59.0702C44.599 57.9402 47.317 55.8762 49.095 53.3252C49.465 52.7942 49.732 52.3352 49.905 52.0152C49.988 51.8592 50.07 51.7012 50.143 51.5392C50.374 50.9972 51.053 50.8332 51.541 50.6092C52.029 50.3842 52.466 50.1662 52.621 50.0592C52.916 49.8572 53.265 49.3672 53.568 48.6282C54.393 46.6182 54.354 44.2512 54.35 42.1182C54.346 40.3862 53.626 38.4482 52.985 36.5752C52.465 35.0552 51.911 33.6952 51.039 32.5232C50.773 32.1652 50.835 31.7732 50.899 31.3652C51.028 30.5192 51.169 29.6752 51.265 28.8252C51.449 27.1912 51.723 25.4092 51.294 23.7932C50.838 23.4632 50.34 23.2372 50.444 22.5442C50.546 21.8622 50.541 21.1702 50.534 20.3762C50.509 18.0622 50.467 15.9732 50.094 13.6662C49.746 11.5082 48.174 9.23124 46.864 7.49324C44.589 4.47324 41.054 3.18424 37.412 2.91224C36.365 2.83424 35.171 2.79024 34.05 2.66424Z" fill="#0CE51C"/>
<path fill-rule="evenodd" clip-rule="evenodd" d="M46.0469 10.4921C45.4409 9.37106 43.3859 6.81306 40.0129 5.55406C35.7959 3.98006 31.3199 3.47506 29.4979 3.82006C27.6739 4.16406 22.1239 7.11006 18.9659 11.9731C16.4399 15.8641 15.3149 17.9711 15.0679 18.5391L13.9379 18.8231C13.0409 19.8671 11.0859 22.6781 10.4299 25.5711C9.77388 28.4631 9.56588 32.0211 9.54288 33.4371C7.90988 34.1231 4.46988 36.0521 3.77888 38.2821C3.62188 38.7891 3.44888 39.3211 3.27088 39.8661C2.47088 42.3221 1.58088 45.0511 1.70088 46.9761C1.84688 49.3271 6.13188 55.1661 8.99288 56.5881C11.8529 58.0101 15.9809 59.1621 18.3319 59.0151C20.2119 58.8971 21.8999 57.8151 22.5089 57.2881C23.4559 58.2181 25.9459 60.1751 28.3189 60.5531C31.2879 61.0251 34.6769 61.4071 36.4119 60.6411C37.7989 60.0281 39.7439 59.5061 40.5419 59.3211C42.1359 58.5851 45.5979 56.6211 46.6979 54.6581C47.7979 52.6941 48.4469 51.3301 48.6329 50.8931C49.3459 51.0651 50.9809 51.0201 51.8149 49.4661C52.8579 47.5231 53.3189 42.2181 52.4479 40.1971C51.7509 38.5801 49.4539 34.2741 48.3919 32.3231C48.8019 31.1331 49.5679 28.4721 49.3649 27.3501C49.1619 26.2281 48.7809 24.8121 48.6169 24.2441C48.6999 22.6971 48.7429 18.9841 48.2529 16.5111C47.7629 14.0381 46.5779 11.4691 46.0469 10.4931V10.4921ZM21.7329 33.7121L17.7429 32.5751C18.3729 30.6311 19.8009 26.4891 20.4659 25.4651C21.0564 24.5624 21.6608 23.669 22.2789 22.7851L22.4159 21.5641C23.2579 19.7821 25.7439 15.9231 28.9519 14.7461C32.1609 13.5701 35.3039 12.8061 36.4749 12.5731C36.9269 12.6231 37.9259 13.3401 38.3079 15.8011C38.6899 18.2611 39.0029 21.0071 39.1119 22.0731C38.7939 22.8611 38.0429 24.7271 37.5829 25.8831C37.1229 27.0411 36.4439 28.2731 36.1629 28.7451C34.8219 28.4571 31.5129 28.0841 29.0049 28.9001C26.4949 29.7161 23.1119 32.4481 21.7329 33.7121Z" fill="white"/>
<path fill-rule="evenodd" clip-rule="evenodd" d="M28.5527 3.43341C23.8177 4.53541 18.6527 11.1664 15.4847 17.2594C15.4587 17.4914 16.2717 19.9394 16.5287 20.2094C16.8957 20.5964 17.0517 20.6344 17.5417 20.4614C17.7907 20.3734 18.3717 19.9214 19.0497 18.8474C20.3887 16.7274 22.1897 15.3074 24.7417 13.1254C28.8017 9.65541 33.9497 7.41041 37.3437 13.2734C38.3047 14.9334 38.8447 17.2334 39.1187 19.9234C39.4537 23.2184 37.3857 24.0964 36.9607 27.8664C36.9607 27.8664 35.5917 27.7934 34.8687 27.6454C32.5177 27.1654 29.0767 27.8684 26.8317 29.2874C24.5117 30.7534 22.2317 33.0944 20.7037 35.5774L19.9737 36.7644C19.2887 36.5304 18.9837 36.2194 17.8087 36.0864C16.7887 35.9714 15.5687 35.6524 13.8797 36.7184C12.8947 37.3394 11.9377 38.7324 11.5837 40.2924C11.4147 41.0424 12.0347 41.1194 12.5417 40.4004C13.0237 39.7184 13.9607 39.6634 14.8427 39.3714C15.7457 39.0734 18.5807 39.7934 18.5807 39.7934C18.5807 39.7934 17.6167 43.2154 17.4087 44.9614C17.2217 46.5214 17.2277 46.6734 17.5047 47.6934C18.0877 49.8334 18.7747 51.9104 19.1147 52.5654C19.5127 53.3284 19.4897 53.3624 18.3957 53.5854C17.2207 53.8244 15.4167 53.4234 12.9667 52.3804C11.9487 51.9464 11.5607 51.6774 10.1767 50.4474C9.14674 49.5314 8.23875 48.5754 7.64875 47.7834C6.85474 46.7174 6.65174 46.3184 6.17574 44.8804C5.57174 43.0584 5.33774 41.5754 5.39575 39.9204C5.42575 38.9974 5.49975 38.6774 5.92275 37.6214C6.91375 35.1514 6.02274 34.7684 3.55774 38.7354C2.53774 40.3774 2.21875 45.2214 2.28975 47.1794C2.42675 50.9264 6.88975 55.3984 10.6327 57.3394C15.5727 59.9024 20.1937 59.0644 22.5877 57.0574C24.6257 58.9274 26.5737 59.5374 28.3597 60.2554C29.7407 60.8114 32.0877 61.1614 33.5697 61.0334C34.6057 60.9434 36.9537 58.8694 35.3997 58.5014C33.1997 57.9814 31.3727 57.1924 29.5447 54.1234C28.6417 52.6064 28.3497 51.8904 27.8927 50.0654C27.5987 48.8974 27.1967 47.3224 27.2887 46.5014L27.5717 43.9884C27.4517 43.9234 25.0187 43.8214 24.5777 43.8224C22.5177 43.8244 24.6677 39.7544 25.1637 38.6264C25.8037 37.1674 28.1087 35.6954 29.9517 34.0764C32.6457 31.7074 37.8527 31.1484 40.0767 28.2164C44.3187 21.3844 41.3867 9.40041 35.3087 5.09441C34.2027 4.31141 29.3897 3.23841 28.5537 3.43341H28.5527ZM13.6937 18.9704C13.1577 19.5664 12.8037 20.1674 12.7607 20.5504C12.7407 20.7354 12.5387 21.2654 12.3147 21.7284C11.4217 23.5714 10.0167 28.6504 9.75275 30.9854C9.65775 31.8304 9.67774 32.0684 9.86474 32.3184C10.2687 32.8614 11.1347 32.6944 11.4687 32.0104C11.5507 31.8424 11.9727 30.4244 12.4057 28.8604C13.2017 25.9824 14.5057 22.8384 15.7227 20.3804C16.1827 19.4524 14.9997 17.5134 13.6927 18.9704H13.6937Z" fill="black"/>
<path d="M36.214 45.974C36.568 44.26 37.604 42.878 38.969 42.3C39.669 42.004 39.906 41.968 40.486 42.075C41.824 42.323 43.038 43.774 43.086 45.185C43.118 46.144 42.788 47.655 42.364 48.487C41.607 49.976 40.439 50.621 38.828 50.442C38.105 50.362 37.945 50.288 37.358 49.76C36.19 48.709 35.868 47.644 36.214 45.974Z" fill="#323239"/>
<path fill-rule="evenodd" clip-rule="evenodd" d="M31.642 1.514C29.932 1.442 27.598 2.581 26.175 3.276L26.145 3.29C20.981 5.812 16.841 11.234 14.902 16.512C14.902 16.512 13.619 16.186 12.77 17.532C10.912 20.477 9.26596 24.721 8.44996 29.7L8.14296 32.423C5.59296 33.98 4.04996 35.62 2.76796 38.391C0.144961 44.063 -0.267039 51.138 4.78296 55.098C8.71196 58.178 15.133 62.285 21.943 59.417L22.49 58.997L23.45 59.635C24.654 60.435 26.432 61.32 27.616 61.708C29.188 62.224 31.854 62.302 33.624 62.236C35.214 62.176 36.905 61.364 37.65 60.893C41.446 60.722 45.43 59.313 48.313 54.617C48.855 53.735 49.419 52.636 49.419 52.636C50.188 52.722 52.175 51.194 52.589 50.619C53.461 49.409 53.861 47.856 54.215 44.786C54.72 40.302 52.886 35.68 50.482 32.079C50.86 31.183 50.932 30.454 51.012 29.657C51.059 29.193 51.108 28.707 51.22 28.151C51.892 24.823 50.417 15.879 49.352 12.77C47.658 7.825 44.232 4.616 40.292 3.088C38.479 2.385 34.088 1.618 31.642 1.514ZM41.607 6.663C46.254 9.485 47.176 14.029 47.651 19.296L42.738 17.462C42.721 15.966 42.582 14.783 42.458 14.095C41.735 11.414 38.474 6.611 37.734 7.476C37.41 7.856 37.627 8.074 38.051 8.5C38.718 9.168 40.601 12.704 40.993 15.832C40.993 15.832 41.116 16.57 41.178 17.648L39.418 18.451C39.096 13.138 35.743 8.571 30.403 8.889C28.701 9.129 27.536 9.479 26.22 10.567C24.863 11.687 24.5 12.144 24.672 12.513C24.937 13.078 25.322 12.95 26.76 11.818C28.286 10.618 29.238 10.361 30.703 10.22C32.083 10.086 34.924 11.18 35.024 11.679C35.047 11.793 34.919 11.839 34.656 11.809C33.35 11.662 30.281 12.661 28.468 13.825C26.488 15.095 23.548 18.052 22.495 19.834L21.975 20.713L19.723 20.368C18.485 20.179 17.423 19.963 17.423 19.963L16.437 17.946C16.437 17.946 18.531 13.584 19.911 11.82C22.471 8.547 26.185 5.579 28.947 4.598C31.203 3.796 33.823 4.326 36.129 4.792C38.027 5.176 39.935 5.648 41.607 6.662V6.663ZM39.43 20.228C39.302 23.002 38.507 26 37.012 28.828C36.82 28.981 36.257 29.312 35.762 29.563C34.688 30.107 32.412 31.759 30.446 33.423C29.278 34.411 28.81 34.928 27.795 36.353C26.262 38.505 25.727 39.421 25.089 40.984C24.478 42.484 24.491 42.783 25.185 43.06C26.033 43.4 26.46 43.09 27.081 41.692C28.106 39.382 30.012 36.902 31.848 35.495C32.838 34.735 34.88 33.705 36.202 33.295C37.054 33.032 38.702 32.893 39.662 33.005C41.709 33.242 43.976 34.191 45.453 35.428C48.283 37.797 49.961 41.418 49.945 45.131C49.937 46.836 49.889 47.735 49.608 49.029C49.524 49.269 49.592 49.401 49.863 49.431C51.435 49.609 51.485 44.156 51.452 43.432C51.325 40.641 50.064 36.92 47.756 33.695C46.868 32.453 46.983 32.131 47.226 31.621C47.769 29.709 48.012 25.788 47.816 21.684L42.686 19.45C42.5888 21.0469 42.3438 22.6314 41.954 24.183C41.429 26.52 40.974 27.243 39.202 27.995C39.202 27.995 40.478 24.271 40.984 21.538C41.115 20.828 41.179 20.104 41.202 19.419L39.43 20.228ZM36.452 14.381C38.776 18.663 38.175 22.195 36.155 26.074C33.31 25.754 30.637 26.028 28.056 27.389C25.908 28.521 24.032 30.109 22.33 31.823C21.367 31.599 21.3 31.577 20.362 31.26C21.032 28.473 22.232 26.622 23.699 24.362L23.701 24.358C23.891 24.066 24.084 23.768 24.281 23.459C24.463 23.175 24.387 22.542 24.33 22.065C24.304 21.848 24.281 21.663 24.289 21.558C24.409 19.909 27.904 16.445 30.605 15.058C32.549 14.06 34.622 13.626 35.703 13.722C36.039 13.752 36.175 13.872 36.452 14.381ZM15.114 20.411C15.444 21.399 15.997 21.854 17.837 22.061C19.554 22.255 21.159 22.212 21.347 22.681C20.018 24.545 18.467 27.8 17.861 30.191L17.781 30.518C17.704 30.85 17.657 31.054 17.531 31.18C17.335 31.38 16.947 31.39 15.947 31.416C15.76 31.421 15.552 31.426 15.32 31.434C13.699 31.484 12.316 31.7 11.439 32.036C11.151 32.146 10.859 32.231 10.79 32.223C10.655 32.208 10.83 31.012 11.355 28.387C11.708 26.612 12.101 25.25 12.684 23.772C13.237 22.369 14.545 19.257 14.629 19.144C14.807 19.164 14.946 19.913 15.113 20.412L15.114 20.411ZM34.21 28.713C34.087 28.791 33.435 29.192 32.762 29.603C32.088 30.013 30.732 31.005 29.747 31.807C27.028 34.02 25.566 35.924 24.248 38.967C23.175 41.444 22.912 42.953 23.426 43.683C23.852 44.288 25.689 44.843 26.36 44.569C26.6 44.471 26.621 44.54 26.605 45.387C26.549 48.282 26.785 49.871 27.617 52.186C28.436 54.463 28.957 55.339 30.129 56.413C31.801 57.943 33.291 59.132 34.688 59.51C33.818 60.026 31.926 59.947 30.986 59.542C26.714 57.705 23.699 51.784 23.012 47.353C22.899 46.623 22.779 45.866 22.745 45.673C22.707 45.461 22.585 45.311 22.434 45.294C21.728 45.214 21.674 48.412 22.34 50.847C22.915 52.953 23.899 55.7 25.476 57.431C25.976 57.979 26.365 58.445 26.341 58.466C26.253 58.546 24.497 57.303 23.826 56.778C21.451 54.92 20.036 52.386 19.162 48.428L18.867 47.092L19.225 43.97C19.571 40.956 19.601 40.806 20.088 39.666C21.565 36.213 23.648 33.577 26.58 31.456C28.3 30.209 29.728 29.446 31.028 29.078C32.056 28.786 33.735 28.5 34.166 28.544C34.399 28.568 34.405 28.589 34.21 28.714V28.713ZM43.775 36.569C48.211 39.423 49.208 45.029 47.743 49.769C47.14 51.724 46.403 53.112 45.218 54.531C41.098 59.463 34.944 59.751 30.954 54.644C28.934 52.056 27.919 49.51 28.417 45.094C29.088 37.646 37.812 32.024 43.775 36.569ZM20.843 33.992C20.895 34.034 20.616 34.571 20.223 35.184L19.51 36.3L18.84 36.178C18.262 36.072 18.119 36.098 17.783 36.371C17.266 36.792 17.315 37.091 17.975 37.531C18.276 37.731 18.546 37.926 18.575 37.963C18.604 37.999 18.536 38.264 18.425 38.551L18.223 39.071L17.546 38.8C16.466 38.367 15.33 38.397 14.031 38.894C13.431 39.124 12.943 39.28 12.947 39.241C12.951 39.201 13.22 38.781 13.544 38.307C14.152 37.417 14.219 37.01 13.766 36.959C12.739 36.843 11.35 39.063 11.108 41.205C10.693 44.889 13.518 49.142 16.902 49.928L17.792 50.134L18.114 51.213C18.546 52.658 19.441 54.349 20.547 55.805C21.047 56.465 21.456 57.018 21.454 57.035C21.452 57.053 21.179 57.189 20.847 57.337C19.357 58.001 17.573 58.092 15.267 57.621C10.092 56.564 4.80996 52.812 3.45696 47.333C3.11096 45.937 3.79296 42.295 4.91696 39.537C5.51896 38.057 6.11296 37.291 7.75396 35.879C9.26696 34.578 9.90396 34.275 12.198 33.769C13.309 33.525 14.32 33.417 16.241 33.336C16.726 33.316 20.708 33.883 20.844 33.992H20.843ZM17.246 39.98L17.816 40.197L17.65 40.816C17.558 41.156 17.37 42.444 17.23 43.676C17.011 45.621 17.003 46.049 17.168 46.922C17.272 47.475 17.353 47.972 17.347 48.026C17.323 48.235 16.22 47.828 15.452 47.327C13.541 46.081 12.007 43.356 12.43 41.959C12.694 41.086 14.237 40.035 15.56 39.827C16.37 39.699 16.553 39.716 17.246 39.98Z" fill="#323239"/>
</svg>
