<svg width="60" height="60" viewBox="0 0 60 60" fill="none" xmlns="http://www.w3.org/2000/svg">
<path d="M34.2683 1.65421C33.3523 1.36621 32.2873 1.28421 30.9683 1.43321C30.8432 1.44919 30.7169 1.41536 30.6167 1.33902C30.5164 1.26269 30.4501 1.14997 30.4322 1.02521C30.4258 0.963359 30.4316 0.900833 30.4495 0.841259C30.4673 0.781685 30.4968 0.726247 30.5363 0.678158C30.5757 0.630069 30.6243 0.590286 30.6792 0.561114C30.7342 0.531941 30.7943 0.51396 30.8563 0.508212C32.2763 0.347212 33.4873 0.429212 34.5673 0.768212C35.6503 1.10821 36.5693 1.69521 37.4173 2.50221C38.8673 3.87921 39.7803 5.71521 40.1313 7.59721C40.5613 9.90821 39.6113 12.0012 39.6113 14.2812C39.6113 15.0912 40.4342 15.6022 40.9113 16.1642C41.7432 17.1442 40.7813 19.6412 40.4443 20.6662C40.0893 21.7462 39.5172 23.2012 39.4612 24.3442V24.3572C39.6852 24.7872 40.2183 25.0272 40.5613 25.3572C41.7983 26.5502 42.1883 28.2912 42.1883 29.8262C42.1883 30.9532 41.6973 31.7862 40.8443 32.4762C40.4243 32.8152 39.9863 33.1182 39.5123 33.3762C39.5113 33.8402 39.5082 34.8422 39.5022 35.9752C39.4976 37.4283 39.48 38.8814 39.4493 40.3342C39.4013 42.0712 39.6683 44.1482 39.9233 45.8792C39.9983 46.3922 40.0792 46.8642 40.1412 47.2072C40.2122 47.5972 40.8022 47.5072 41.1562 47.6252C41.7432 47.8212 42.1572 48.2322 42.3362 48.8252C42.5852 49.6572 42.8533 50.4822 43.0483 51.3292C43.3333 52.5742 44.5923 52.7592 45.3933 53.5312C45.8473 53.9692 46.0182 54.7962 46.2602 55.3762C46.8562 56.8082 44.5792 57.2422 43.6632 57.5612C40.9072 58.5212 38.1503 58.6012 35.2543 58.5612C35.1919 58.5615 35.1301 58.5494 35.0725 58.5258C35.0148 58.5022 34.9624 58.4674 34.9181 58.4234C34.8739 58.3795 34.8388 58.3273 34.8148 58.2698C34.7908 58.2122 34.7784 58.1505 34.7783 58.0882C34.7837 57.9627 34.8382 57.8443 34.93 57.7584C35.0218 57.6726 35.1436 57.6262 35.2693 57.6292C38.0183 57.6672 40.6572 57.6202 43.2742 56.7062C43.5272 56.6172 45.5283 56.1212 45.3623 55.7232C45.1453 55.1992 44.9443 54.6582 44.6753 54.1582C44.1292 53.6842 43.3913 53.4822 42.8303 53.0202C42.3553 52.6302 42.2372 52.1142 42.1072 51.5432L42.0992 51.5092C41.9113 50.6892 41.6493 49.8892 41.4073 49.0842C41.2363 48.5162 40.6392 48.4242 40.1272 48.3552C39.4692 48.2672 39.3142 48.0572 39.1892 47.3672C39.1263 47.0172 39.0433 46.5362 38.9663 46.0102C38.7043 44.2332 38.4333 42.0942 38.4833 40.3092C38.5113 39.3282 38.5263 37.5292 38.5353 35.9692C38.5423 34.8022 38.5452 33.7732 38.5452 33.3312C38.5452 33.0892 38.5533 32.8222 38.7973 32.6942C39.8933 31.9742 41.2213 31.3312 41.2213 29.8262C41.2213 28.4052 40.8552 26.9582 39.8772 26.0162C39.4482 25.6022 38.8813 25.3222 38.5973 24.7742C38.1313 23.8752 39.2063 21.3482 39.5063 20.4342C39.7093 19.8162 40.6882 17.3732 40.1632 16.7542C39.5182 15.9942 38.6443 15.3842 38.6443 14.2812C38.6443 12.0682 39.5963 9.99721 39.1803 7.76221C38.8603 6.04521 38.0292 4.39121 36.7392 3.16521C35.9752 2.43921 35.1813 1.94021 34.2683 1.65421Z" fill="#FF73E5"/>
<path fill-rule="evenodd" clip-rule="evenodd" d="M37.5576 14.7554C38.4516 10.6624 39.0206 2.98236 31.6686 1.79836C25.4846 0.802357 22.9236 8.95236 22.0376 13.6114L20.2996 15.4774L18.8796 24.1804C18.3006 24.4404 17.1426 25.3934 17.1426 27.1344C17.1426 28.8744 17.7746 30.0354 18.0896 30.3984C17.8266 32.1594 17.4586 36.1184 18.0896 37.8584C18.4096 38.7384 19.1926 39.4154 20.2426 39.9404L19.9966 49.2124L17.8016 49.8284L16.7036 53.2024L15.6056 53.5644L14.1426 56.1044C16.5116 56.6744 22.8266 58.1554 29.1426 58.2804C35.4586 58.4044 41.7746 56.2594 44.1426 55.3784L43.7766 54.0254L41.9476 52.4764L40.8496 49.9374C40.4836 49.2124 39.8916 48.6114 39.3866 48.4874C38.8486 48.3544 38.6306 48.8294 38.3266 47.8954L38.1426 47.3414C37.7636 46.2214 37.3526 36.8234 37.1956 32.2634C37.1956 32.2634 37.9856 32.2324 38.6156 32.1084C39.4056 31.9524 40.6686 30.3984 40.6686 28.5384C40.1186 26.3614 38.6246 25.2734 37.1956 25.2734C38.0216 21.8044 38.9106 18.8704 39.0206 18.3814C39.3366 16.9824 38.5046 15.1214 37.5576 14.7544V14.7554ZM34.6296 32.8914C33.6626 36.7454 33.4076 40.1724 33.1656 40.4114C32.5346 41.0324 29.3226 40.9744 25.8486 40.5084C24.2406 40.2924 22.4706 39.9124 21.0926 39.4204C21.4986 41.3094 23.2586 44.8534 27.2466 46.0984C32.4266 47.7154 33.7896 46.3634 34.2636 45.2234L34.6296 32.8914Z" fill="white"/>
<path fill-rule="evenodd" clip-rule="evenodd" d="M22.3796 13.2622C21.0696 14.3762 20.3726 14.4802 20.5036 15.7722C20.5176 15.9092 20.9936 17.1872 20.9256 17.4812C20.6686 18.5852 20.4626 19.7012 20.2006 20.8042C20.0046 21.6272 20.1636 22.0052 20.7056 22.0052C21.4836 22.0052 21.3566 20.8842 22.1416 20.8842C23.7176 21.4112 23.0416 23.5942 21.9766 23.7932C21.9766 23.7932 21.6536 23.8232 21.2866 23.7932C20.5946 23.7372 20.9726 21.9732 20.1946 22.5002C19.9286 22.6802 17.3636 26.2982 17.3566 26.9502C17.3366 28.9402 18.6966 29.9022 19.5306 27.1602C19.8456 26.8562 20.0766 27.1602 20.0766 27.1602C20.1606 27.4612 20.2816 27.6872 20.4106 27.7852C20.9706 28.2112 21.2846 28.5262 21.3996 29.0912C21.5696 29.9322 21.4346 30.7702 20.9856 31.5732C20.6426 32.1852 19.9336 31.9462 19.4916 31.4602C19.4916 31.4602 18.3736 34.2752 18.3536 34.8722C18.3106 36.1562 18.7736 37.1552 18.7246 38.4762C18.7106 38.8512 18.7366 38.9202 18.9946 39.1772C19.3476 39.5302 19.8426 40.3252 20.1946 40.3922C20.2096 43.5162 20.1946 45.8872 19.8506 50.0022C19.8506 50.0022 18.0096 49.8772 17.7716 50.0902C17.3836 50.4382 17.0456 52.6312 17.0456 52.6312L18.3256 53.1112C17.5656 53.3602 16.1906 53.4132 15.5426 53.7952C15.0606 54.0792 14.1426 55.8982 14.1426 55.8982C16.0426 57.7982 20.2276 57.3952 22.7656 57.7982C24.1886 58.0232 29.0126 58.2862 29.0126 58.2862C29.1786 57.3332 29.5266 56.8362 29.6826 55.8762C31.2066 55.8762 38.0386 55.4682 38.0386 53.2262C38.0386 53.0732 37.8756 52.9962 37.5546 52.9962C34.6756 53.8792 32.1796 53.8792 30.2596 54.0622V52.2862C33.0956 52.2742 36.6426 51.8572 39.8566 50.3572C40.1866 50.2112 40.8996 49.3922 40.0666 48.8642C39.5936 48.5642 38.8806 49.0662 38.4096 49.1802C37.7396 49.3432 35.7856 49.9282 34.9376 50.0022C34.9376 44.5722 34.9476 38.5052 35.2416 33.0622C35.9466 33.1662 36.7686 33.3072 37.4626 33.1182C37.7376 33.0432 37.9636 32.5482 38.0166 31.9052L38.0566 31.4152C37.4266 30.9602 36.1766 31.0532 36.1746 28.9032C36.1716 26.7532 38.3756 26.9502 38.3756 26.9502C39.5946 25.8792 36.9686 24.9682 36.1776 24.9682C34.4866 24.9682 32.8256 26.5872 32.3216 28.0502C31.8276 29.4822 31.6806 31.6412 32.8156 32.7912C32.9116 32.8892 32.9216 33.2212 32.8696 34.7642C32.8696 36.3392 32.9316 38.1242 32.6786 38.8942C32.4256 39.6642 31.9546 39.8922 31.4576 39.6512C28.9676 38.4412 26.1346 38.1622 23.4076 38.1342C22.1676 38.1212 21.1146 38.0892 21.0696 38.0612C20.5876 37.7742 21.3806 37.5102 21.5446 37.4922C22.2896 37.4122 25.0096 37.4062 27.6076 37.4812C30.8376 37.5742 28.6046 36.5262 26.5296 36.2152C25.0746 35.9972 22.8426 35.9512 21.6456 36.1482C21.1786 36.2252 20.7876 36.2542 20.7476 36.2152C20.6746 36.1452 20.9856 33.6492 20.9856 33.6492C20.9856 33.6492 23.1906 33.8992 24.1956 31.4602C25.1676 29.4642 24.0456 27.1132 21.9306 26.4822C21.4406 26.3352 21.3996 26.3052 21.3996 26.0962C21.3996 25.8082 21.5146 25.7212 21.9776 25.6652C22.9326 25.5472 24.2136 24.1442 24.5466 23.2832C25.0446 21.9952 24.4346 20.3632 22.9616 20.1622C22.6816 20.1232 22.4126 20.0552 22.3656 20.0092C22.0266 19.6812 22.6156 17.9332 22.6886 17.4692C22.7536 17.0582 23.3916 17.1052 23.7176 17.0492C26.8966 16.5082 29.9396 17.3392 33.0256 17.8772C34.3086 18.1012 35.9976 18.5632 37.1696 19.1192C37.5606 19.3052 39.8216 19.8492 39.3696 18.6992C38.8406 17.3532 33.8026 16.3552 32.5746 16.0772C29.7546 15.4402 26.7846 14.7862 23.9176 15.2142C23.4736 15.3222 22.9616 15.4112 22.9616 15.4112C22.9616 15.4112 23.3376 14.9552 23.9176 14.3762C24.6946 13.6002 24.7256 13.5932 27.3176 13.5832C30.3546 13.5722 33.2106 14.2532 36.0226 15.4112C36.4926 15.6052 36.9606 15.7812 37.4246 15.9992C37.9866 16.2632 38.4996 16.4792 38.5646 16.4792C38.7496 16.4792 38.8896 16.2592 38.8346 16.0492C38.7906 15.8792 37.9966 14.9872 37.4626 14.5742C35.6606 13.1812 33.3186 12.3892 30.8306 12.0612C25.1876 11.3192 27.3186 3.42822 27.3186 3.42822C23.6896 5.42622 23.9656 12.1382 22.3786 13.2622H22.3796ZM22.3796 40.9832C22.2356 40.9832 22.2176 41.0182 22.2636 41.2032C22.7996 43.3822 25.5456 44.6842 27.5476 45.2202C28.7566 45.5442 32.2796 46.0842 33.2896 45.1172C33.7586 44.6702 33.4736 42.4652 33.4976 41.7782C30.4076 42.6122 25.4126 42.1412 22.3786 40.9842L22.3796 40.9832Z" fill="black"/>
<path fill-rule="evenodd" clip-rule="evenodd" d="M25.5137 3.15034C23.6037 5.11434 21.9287 9.32334 21.9287 12.1743C21.9287 12.6073 21.9027 12.6443 20.8647 13.7383C19.2337 15.3183 19.6487 16.9493 19.6487 16.9493C19.6487 16.9493 19.6947 17.2173 19.5067 18.2043C19.4017 18.7523 19.3217 19.6773 19.2337 20.0533C19.0873 20.6796 18.9473 21.3073 18.8137 21.9363C18.5487 23.1943 18.2927 23.4213 18.0047 23.7243C16.8477 24.9413 16.5487 25.8643 16.5497 27.0303C16.5507 27.5753 17.0217 28.3603 17.2737 28.7083C17.4207 28.9123 17.4517 29.0823 17.4717 29.8173C17.4857 30.2943 17.5577 30.9473 17.6337 31.2673C17.7597 31.8013 17.7607 31.9253 17.6477 32.7773C17.5027 33.8683 17.4897 35.4973 17.6127 37.1373C17.7387 38.8153 17.7677 38.8643 19.2257 39.8973L19.9077 40.3803L19.8547 41.4753C19.8247 42.0773 19.7427 43.0583 19.6727 43.6553C19.5467 44.7193 19.5507 45.4353 19.6957 47.8113L19.7457 48.6343H19.4977C19.0257 48.6343 17.9537 49.1063 17.5197 49.5063C17.1537 49.8433 17.0977 49.9413 16.9497 50.5223C16.6857 51.5523 16.5347 52.3253 16.5617 52.5143C16.5837 52.6723 16.5407 52.6943 16.1357 52.7383C15.3887 52.8173 15.2257 52.9553 14.8187 53.8553C14.6687 54.1853 14.3917 54.7153 14.2027 55.0293C13.7317 55.8143 13.6167 56.2543 13.7907 56.6133C14.0277 57.1023 14.5727 57.2533 17.7277 57.7113C18.3557 57.8033 19.1817 57.9453 19.5627 58.0283C19.9447 58.1113 20.6597 58.2523 21.1527 58.3433C23.8027 58.8303 23.9117 58.8453 26.4957 59.0813C28.3537 59.2503 32.3737 59.0553 33.8487 58.7253C34.1327 58.6613 34.5677 58.5863 34.8137 58.5583C35.0607 58.5293 35.5007 58.4553 35.7927 58.3943L37.3427 58.0683C37.9027 57.9513 38.5997 57.7863 38.8917 57.7013C39.8487 57.4243 41.8617 56.9213 42.2357 56.8673C42.8657 56.7743 43.9757 56.4553 44.4007 56.2423C44.9477 55.9693 45.0447 55.7723 44.9837 55.0563C44.9137 54.2243 44.7217 53.9103 43.7447 53.0183C42.8077 52.1623 42.6197 51.8643 42.1677 50.5223C41.8127 49.4693 41.4877 48.8313 41.1767 48.5723C40.9437 48.3793 40.1557 48.0123 39.6867 47.8793C38.9937 47.6823 39.0067 47.7163 38.6927 45.4223C38.6287 44.9583 38.5547 43.7653 38.5267 42.7723C38.4997 41.7773 38.4387 40.6213 38.3927 40.2023C38.3457 39.7823 38.2977 37.9463 38.2857 36.1213L38.2627 32.8043C40.5317 32.7563 41.3197 30.8063 41.5327 28.7423C41.7367 26.7643 39.8927 25.4363 38.2387 24.7593C38.2387 24.0083 39.0147 21.1253 39.3477 19.9153C40.5007 19.7023 40.0687 17.0233 39.7557 16.2353C39.4985 15.5628 39.1119 14.9471 38.6177 14.4233C39.3667 9.81934 39.8307 4.08134 35.0247 1.64434C32.2847 0.254344 27.9197 0.675344 25.5147 3.15034H25.5137ZM32.5227 3.65134C35.6387 4.84634 36.3777 5.45134 36.8227 8.92134C37.0657 10.8143 36.6627 12.5513 36.5267 14.4233C36.4837 15.0233 37.0647 15.3973 37.2627 15.5243C37.7387 15.8323 38.2707 16.9393 38.2397 18.3443C37.5197 18.6243 37.1747 19.1203 37.0647 19.9153C36.8627 21.3813 35.7267 24.3513 36.2277 25.8563C36.4857 26.1723 37.2857 26.5343 38.0287 26.8493C39.9057 27.2573 40.2097 29.5073 39.0147 30.7493C38.6197 31.1603 37.3977 31.3133 36.9247 31.4533C36.7197 31.5133 36.4767 31.6333 36.3847 31.7183C36.2197 31.8703 36.2167 31.9383 36.2277 35.6733C36.2327 37.8263 36.1747 40.0463 36.2277 40.5473C36.2777 41.0333 36.3547 42.3703 36.3997 43.5193C36.4587 45.0423 36.5337 45.9223 36.6777 46.7713C36.8877 48.0153 36.9367 48.1483 37.3787 48.6883C37.6887 49.0683 38.7057 49.1123 39.3497 49.3013C39.9597 49.4783 40.2597 49.6523 40.3897 49.9013C40.4517 50.0213 40.6397 50.5363 40.8057 51.0443C40.9717 51.5523 41.1347 52.0043 41.1667 52.0483C41.1997 52.0923 41.3297 52.3743 41.4567 52.6753C41.6207 53.0643 41.7657 53.2743 41.9597 53.4043C42.5097 53.7723 43.4587 54.7363 43.4587 54.9263C43.4587 55.0953 43.3857 55.1263 42.6227 55.2963C41.3547 55.5773 39.9127 55.9243 39.0957 56.1453C37.5787 56.5553 35.3037 57.0443 34.2427 57.1873C33.9287 57.2344 33.616 57.2891 33.3047 57.3513C31.1577 57.7783 26.3917 57.7783 23.8447 57.3493C22.2737 57.0863 20.7977 56.8143 20.1347 56.6673C19.3547 56.4953 17.7337 56.2253 16.9947 56.1453C16.6473 56.1031 16.302 56.0453 15.9597 55.9723L15.4147 55.8523L15.6897 55.3923C15.8397 55.1383 15.9877 54.8353 16.0177 54.7173C16.1157 54.3343 16.3847 54.1413 17.0487 53.9793C17.5857 53.8473 17.7227 53.8393 18.0147 53.9263C18.6797 54.1223 21.6907 54.6523 22.1567 54.6563C22.6087 54.6583 23.2007 54.5113 23.3247 54.3663C23.4747 54.1873 23.2897 53.8863 22.9137 53.6973C22.6037 53.5423 21.6607 53.2803 20.4397 53.0123C18.9897 52.6933 18.7617 52.6383 18.3977 52.5203C18.1067 52.4263 18.0167 52.3603 18.0427 52.2603C18.0627 52.1883 18.1627 51.7733 18.2667 51.3393C18.4737 50.4693 18.5807 50.3393 18.9667 50.4913C19.5687 50.7283 22.6877 51.2833 23.4207 51.2843C24.0057 51.2843 24.3977 51.1493 24.4897 50.9143C24.5517 50.7543 24.5777 50.7823 24.1627 50.5763C23.8097 50.4013 23.3567 50.2783 21.8877 49.9583C20.4797 49.6523 20.6157 49.7123 20.7497 49.4583C20.8147 49.3363 20.8667 49.2063 20.8677 49.1683C20.8677 49.1323 20.9417 49.0093 21.0307 48.8973C21.2257 48.6533 21.2387 48.2413 21.1007 46.6173C21.0287 45.7723 21.0297 45.2373 21.1057 44.3243C21.4397 40.2993 21.4447 40.0993 21.2097 39.6683C21.1097 39.4843 20.5747 38.9963 20.4727 38.9963C20.3727 38.9963 19.4817 38.1573 19.4817 38.0643C19.4817 38.0183 19.8577 37.8243 20.3177 37.6333C20.7777 37.4423 21.2977 37.1753 21.4727 37.0403L21.7917 36.7943L21.5537 36.6943C21.2257 36.5563 20.5817 36.5643 20.0497 36.7113C19.8622 36.7652 19.6727 36.8119 19.4817 36.8513C19.3017 36.8763 19.2167 34.3653 19.3717 33.5913C19.4317 33.2893 19.4817 32.9103 19.4827 32.7473C19.4847 32.4153 19.5407 32.3013 19.7427 32.2283C19.8177 32.2013 19.9407 32.0883 20.0147 31.9763C20.1447 31.7813 20.1377 31.7503 19.8417 31.1483C19.4347 30.3223 19.3797 29.6423 19.6487 28.7823C19.7507 28.4593 19.9227 28.0613 20.0327 27.8973C20.1927 27.6573 20.2207 27.5413 20.1777 27.2893C20.1257 26.9833 20.1307 26.9753 20.4557 26.8493C20.7447 26.7383 20.7857 26.6893 20.7857 26.4693C20.7857 26.2593 20.7407 26.1993 20.5037 26.1023C20.0307 25.9073 19.8207 25.9523 19.4407 26.3273C19.1767 26.5873 19.0807 26.7543 19.0357 27.0303C18.9637 27.4723 18.6597 28.1463 18.5297 28.1503C18.4777 28.1533 18.4107 28.0373 18.3817 27.8933C18.3471 27.7292 18.3006 27.5678 18.2427 27.4103C18.1137 27.0813 18.3597 26.3143 18.8137 25.6293C19.0207 25.3173 19.2097 25.0443 19.2337 25.0223C19.2577 25.0003 19.4887 24.7583 19.7467 24.4863C20.1147 24.0963 20.2167 23.9333 20.2217 23.7233C20.2277 23.4383 20.5257 22.7133 20.5357 22.9563C20.5457 23.2083 20.9327 23.8693 21.1957 24.0883C21.5157 24.3523 21.7957 24.3563 22.0537 24.1023C22.3057 23.8543 22.3057 23.7093 22.0507 23.2383C21.8007 22.7773 21.7957 22.5193 22.0207 21.8703C22.1827 21.4053 22.6837 20.6053 22.8137 20.6053C22.9047 20.6053 23.3957 20.1393 23.3957 20.0533C23.3957 19.8903 23.1317 19.7213 22.8807 19.7233C21.5087 19.7233 20.8257 21.2473 20.8257 21.2473C21.0217 20.0513 21.5087 18.2043 21.5977 17.0783C21.6257 17.0333 21.9977 16.9413 22.4227 16.8743C23.5207 16.7003 24.4327 16.4513 24.7087 16.2503C24.8387 16.1543 24.9457 16.0513 24.9457 16.0203C24.9457 15.9893 24.8197 15.8543 24.6657 15.7203C24.1457 15.2713 23.3517 15.2183 21.7357 15.5243C21.5227 15.5643 21.5097 15.5543 21.5887 15.4093C21.7577 15.0983 22.5487 14.3793 22.8687 14.2463C23.0467 14.1723 23.7157 13.9463 24.3557 13.7443C25.9937 13.2273 26.1527 12.4293 24.3557 12.4293C24.3527 11.2543 24.6807 10.2733 25.0127 9.17134C26.0507 5.73034 27.5157 2.64834 32.5227 3.65134Z" fill="#323239"/>
</svg>
