<svg width="16" height="14" viewBox="0 0 16 14" fill="none" xmlns="http://www.w3.org/2000/svg">
<path fill-rule="evenodd" clip-rule="evenodd" d="M2 0H14L16 4V14H0V4L2 0ZM2.236 4H6V5C6 5.26522 6.10536 5.51957 6.29289 5.70711C6.48043 5.89464 6.73478 6 7 6H9C9.26522 6 9.51957 5.89464 9.70711 5.70711C9.89464 5.51957 10 5.26522 10 5V4H13.764L12.764 2H3.236L2.236 4ZM14 6H11.83C11.623 6.58507 11.2397 7.09158 10.7329 7.44976C10.226 7.80794 9.62062 8.00018 9 8H7C6.37938 8.00018 5.77397 7.80794 5.26715 7.44976C4.76032 7.09158 4.37701 6.58507 4.17 6H2V12H14V6Z" fill="#EFEFF1"/>
</svg>
