<svg width="20" height="20" viewBox="0 0 20 20" fill="none" xmlns="http://www.w3.org/2000/svg">
<path d="M10.114 9.622L11 7L7.175 9.323C7.12025 9.35832 7.07545 9.40706 7.04485 9.46458C7.01425 9.5221 6.99887 9.58649 7.00018 9.65163C7.00148 9.71677 7.01942 9.78049 7.0523 9.83674C7.08517 9.89299 7.13189 9.93989 7.188 9.973L7.886 10.378L7 13L10.825 10.677C10.8798 10.6418 10.9247 10.5931 10.9554 10.5356C10.986 10.4782 11.0015 10.4138 11.0003 10.3487C10.9991 10.2835 10.9813 10.2198 10.9485 10.1635C10.9157 10.1072 10.8691 10.0602 10.813 10.027L10.114 9.622Z" fill="#EFEFF1"/>
<path fill-rule="evenodd" clip-rule="evenodd" d="M18 7H16V4H2V16H16V13H18V7ZM14 6V9H16V11H14V14H4V6H14Z" fill="#EFEFF1"/>
</svg>
